HIERARCHY
ROOT Hips
{
	OFFSET	0.00	0.00	0.00
	CHANNELS 6 Xposition Yposition Zposition Zrotation Xrotation Yrotation
	JOINT LeftUpLeg
	{
		OFFSET	 0.126116	-0.014019	-0.065224
		CHANNELS 3 Zrotation Xrotation Yrotation
		JOINT LeftLeg
		{
			OFFSET	 0.000000	 0.000000	 0.569914
			CHANNELS 3 Zrotation Xrotation Yrotation
			JOINT LeftFoot
			{
				OFFSET	 0.000000	 0.000000	 0.544423
				CHANNELS 3 Zrotation Xrotation Yrotation
				JOINT LeftToeBase
				{
					OFFSET	 0.000000	 0.000000	 0.207117
					CHANNELS 3 Zrotation Xrotation Yrotation
					End Site
					{
						OFFSET	 0.000000	 0.000000	 0.207117
					}
				}
			}
		}
	}
	JOINT RightUpLeg
	{
		OFFSET	-0.124023	-0.008373	-0.065224
		CHANNELS 3 Zrotation Xrotation Yrotation
		JOINT RightLeg
		{
			OFFSET	 0.000000	 0.000000	 0.570047
			CHANNELS 3 Zrotation Xrotation Yrotation
			JOINT RightFoot
			{
				OFFSET	 0.000000	 0.000000	 0.544354
				CHANNELS 3 Zrotation Xrotation Yrotation
				JOINT RightToeBase
				{
					OFFSET	 0.000000	 0.000000	 0.207540
					CHANNELS 3 Zrotation Xrotation Yrotation
					End Site
					{
						OFFSET	 0.000000	 0.000000	 0.207540
					}
				}
			}
		}
	}
	JOINT Spine
	{
		OFFSET	 0.000184	-0.007763	 0.117403
		CHANNELS 3 Zrotation Xrotation Yrotation
		JOINT Spine1
		{
			OFFSET	 0.000000	 0.000000	 0.137269
			CHANNELS 3 Zrotation Xrotation Yrotation
			JOINT Spine2
			{
				OFFSET	 0.000000	 0.000000	 0.156879
				CHANNELS 3 Zrotation Xrotation Yrotation
				JOINT LeftShoulder
				{
					OFFSET	 0.080501	-0.002496	 0.160144
					CHANNELS 3 Zrotation Xrotation Yrotation
					JOINT LeftArm
					{
						OFFSET	 0.000000	 0.000000	 0.164363
						CHANNELS 3 Zrotation Xrotation Yrotation
						JOINT LeftForeArm
						{
							OFFSET	 0.000000	 0.000000	 0.364576
							CHANNELS 3 Zrotation Xrotation Yrotation
							JOINT LeftHand
							{
								OFFSET	 0.000000	 0.000000	 0.360812
								CHANNELS 3 Zrotation Xrotation Yrotation
								JOINT LeftHandIndex1
								{
									OFFSET	 0.000000	 0.000000	 0.086006
									CHANNELS 3 Zrotation Xrotation Yrotation
									JOINT LeftHandIndex2
									{
										OFFSET	 0.000000	 0.000000	 0.047237
										CHANNELS 3 Zrotation Xrotation Yrotation
										JOINT LeftHandIndex3
										{
											OFFSET	-0.004284	-0.000551	 0.038165
											CHANNELS 3 Zrotation Xrotation Yrotation
											End Site
											{
												OFFSET	-0.004284	-0.000551	 0.038165
											}
										}
									}
								}
							}
						}
					}
				}
				JOINT Neck
				{
					OFFSET	 0.000000	 0.000000	 0.176489
					CHANNELS 3 Zrotation Xrotation Yrotation
					JOINT Head
					{
						OFFSET	 0.000000	-0.001747	 0.077940
						CHANNELS 3 Zrotation Xrotation Yrotation
						End Site
						{
							OFFSET	 0.000000	-0.001747	 0.077940
						}
					}
				}
				JOINT RightShoulder
				{
					OFFSET	-0.080363	 0.000306	 0.159706
					CHANNELS 3 Zrotation Xrotation Yrotation
					JOINT RightArm
					{
						OFFSET	 0.000000	 0.000000	 0.164196
						CHANNELS 3 Zrotation Xrotation Yrotation
						JOINT RightForeArm
						{
							OFFSET	 0.000000	 0.000000	 0.365611
							CHANNELS 3 Zrotation Xrotation Yrotation
							JOINT RightHand
							{
								OFFSET	 0.000000	 0.000000	 0.360648
								CHANNELS 3 Zrotation Xrotation Yrotation
								JOINT RightHandIndex1
								{
									OFFSET	 0.000000	 0.000000	 0.069977
									CHANNELS 3 Zrotation Xrotation Yrotation
									JOINT RightHandIndex2
									{
										OFFSET	 0.000000	 0.000000	 0.052305
										CHANNELS 3 Zrotation Xrotation Yrotation
										JOINT RightHandIndex3
										{
											OFFSET	 0.009002	-0.000782	 0.042196
											CHANNELS 3 Zrotation Xrotation Yrotation
											End Site
											{
												OFFSET	 0.009002	-0.000782	 0.042196
											}
										}
									}
								}
							}
						}
					}
				}
			}
		}
	}
}
MOTION
Frames:    13
Frame Time: 0.03333334
-0.719222	-0.006132	 1.272730	-177.141600	-5.444032	 0.142961	-19.422120	 4.080654	-175.145100	-3.756650	-8.838283	-0.804249	 13.858530	 70.578580	-25.029170	-2.385833	 28.452760	 0.000004	 19.712940	 2.892428	 173.770500	 1.766918	-11.108000	 0.383031	-17.726340	 70.814330	 26.285190	 2.384659	 28.388700	-0.000001	 1.804398	 5.978582	-2.275896	 2.059934	 11.955500	 6.812324	-8.348467	-9.582817	-8.433366	-91.776080	 78.527380	 179.999900	-4.198135	-3.356731	 3.999840	-13.876850	-2.341554	-27.361070	 0.772468	-8.759977	-2.264106	-4.130354	 21.526190	 0.991307	-5.167926	 0.731697	 3.519349	-1.378229	 35.397820	-2.634230	-7.829615	 0.850250	 3.280462	-5.882145	-16.398140	-4.551741	 89.782150	 78.203890	 180.000000	 24.096450	-6.800573	 2.018228	 7.204751	-2.090306	 23.959290	 27.860010	 49.999410	 4.966948	 5.716295	 19.173350	-3.684826	 5.027458	 0.246833	-9.377971	-2.350882	 35.473990	 5.254307
-0.719167	-0.006135	 1.272731	-177.093400	-5.524694	 0.144297	-19.141750	 4.208003	-175.169700	-3.934138	-8.798153	-0.828000	 14.203400	 70.376880	-25.227320	-2.385833	 28.452760	 0.000004	 19.563650	 3.019398	 173.753600	 1.897049	-11.072740	 0.406851	-17.733310	 70.586420	 26.197280	 2.384659	 28.388700	-0.000001	 1.790386	 6.033716	-2.307778	 2.072741	 12.088660	 6.895082	-8.457790	-9.712135	-8.550159	-91.776210	 78.527420	-180.000000	-4.161467	-3.111795	 4.360834	-13.984850	-2.361506	-28.134910	 0.581751	-8.929338	-2.260224	-4.130354	 21.526190	 0.991307	-5.167926	 0.731697	 3.519349	-1.378229	 35.397820	-2.634230	-7.935687	 0.901190	 3.362290	-5.971168	-16.515800	-4.669420	 89.782140	 78.203870	 180.000000	 24.460720	-6.574024	 1.745242	 7.335967	-2.105735	 24.730490	 29.176180	 50.462470	 3.987102	 5.716295	 19.173350	-3.684826	 5.027458	 0.246833	-9.377971	-2.350882	 35.473990	 5.254307
-0.719117	-0.006140	 1.272731	-177.050200	-5.597173	 0.145564	-18.892920	 4.322504	-175.192300	-4.091586	-8.762219	-0.848847	 14.509940	 70.198550	-25.403890	-2.385833	 28.452760	 0.000004	 19.430940	 3.134019	 173.738500	 2.012500	-11.040730	 0.427828	-17.743150	 70.384470	 26.123540	 2.384659	 28.388700	-0.000001	 1.776999	 6.084298	-2.335643	 2.083277	 12.205010	 6.967420	-8.554984	-9.826249	-8.653370	-91.776250	 78.527400	-179.999900	-4.126483	-2.886155	 4.691581	-14.081380	-2.378850	-28.844950	 0.412865	-9.080541	-2.257417	-4.130354	 21.526190	 0.991307	-5.167926	 0.731697	 3.519349	-1.378229	 35.397820	-2.634230	-8.029935	 0.946180	 3.435116	-6.050436	-16.620000	-4.774468	 89.782130	 78.203850	 180.000000	 24.791570	-6.362354	 1.493068	 7.452953	-2.118693	 25.439110	 30.392130	 50.843700	 3.065382	 5.716295	 19.173350	-3.684826	 5.027458	 0.246833	-9.377971	-2.350882	 35.473990	 5.254307
-0.718726	-0.006187	 1.272691	-176.704100	-6.194692	 0.147145	-16.846430	 4.933215	-175.389300	-5.373491	-9.167783	-1.094403	 17.164810	 69.143050	-27.040150	-2.385833	 28.452760	 0.000004	 18.337340	 3.992460	 173.631600	 2.946343	-11.009610	 0.605360	-18.042050	 68.889240	 25.759790	 2.384659	 28.388700	-0.000001	 1.643681	 6.534897	-2.534221	 2.147501	 13.065590	 7.517353	-9.343815	-10.711070	-9.475269	-91.776170	 78.527400	 180.000000	-3.761065	-0.763552	 7.680522	-14.880230	-2.490595	-35.309270	-0.938505	-10.334670	-2.254303	-4.130354	 21.526190	 0.991307	-5.167926	 0.731697	 3.519349	-1.378229	 35.397820	-2.634230	-8.795916	 1.302436	 4.031167	-6.701643	-17.453130	-5.645115	 89.782140	 78.203890	 180.000000	 27.717850	-4.269851	-0.881859	 8.407015	-2.178375	 31.933240	 41.627890	 52.708390	-5.899990	 5.716295	 19.173350	-3.684826	 5.027458	 0.246833	-9.377971	-2.350882	 35.473990	 5.254307
-0.718422	-0.006273	 1.272498	-176.383000	-6.742701	 0.144183	-15.127520	 5.177350	-175.592100	-6.444519	-10.279590	-1.419958	 19.578400	 68.759930	-28.658820	-2.385833	 28.452760	 0.000004	 17.416660	 4.665848	 173.523700	 3.712282	-11.390780	 0.777882	-18.554340	 67.953740	 25.742220	 2.384659	 28.388700	-0.000001	 1.385122	 7.008298	-2.702839	 2.083956	 13.548420	 7.991722	-9.976003	-11.281820	-10.153020	-91.776150	 78.527420	 180.000000	-3.495939	 2.404279	 11.672750	-15.592540	-2.725912	-44.213110	-2.039534	-11.401590	-2.295182	-4.130354	 21.526190	 0.991307	-5.167926	 0.731697	 3.519349	-1.378229	 35.397820	-2.634230	-9.435680	 1.577638	 4.593453	-7.248912	-18.063830	-6.504194	 89.782170	 78.203850	 179.999900	 30.062260	-1.238413	-4.594568	 9.312008	-2.250526	 41.016770	 52.357310	 51.051510	-14.316790	 5.716295	 19.173350	-3.684826	 5.027458	 0.246833	-9.377971	-2.350882	 35.473990	 5.254307
-0.718490	-0.006382	 1.272083	-176.280500	-6.833231	 0.162424	-15.267210	 4.580773	-175.599700	-6.360151	-12.047000	-1.642709	 19.828420	 69.964440	-29.034100	-2.385833	 28.452760	 0.000004	 17.537580	 4.661616	 173.376200	 3.607030	-12.082460	 0.802299	-18.750860	 68.663190	 25.996830	 2.384659	 28.388700	-0.000001	 0.971321	 7.158518	-2.821083	 1.745085	 12.971940	 8.165587	-9.820954	-10.781460	-10.126920	-91.776160	 78.527400	 180.000000	-4.167569	 6.219139	 15.683130	-15.811700	-3.510986	-53.661180	-1.945994	-11.244670	-2.338343	-4.130354	 21.526190	 0.991307	-5.167926	 0.731697	 3.519349	-1.378229	 35.397820	-2.634230	-9.374539	 1.518173	 4.752521	-7.173558	-17.767430	-6.815551	 89.782140	 78.203850	 180.000000	 28.225550	 1.616727	-9.112784	 9.734159	-2.657563	 50.835860	 52.349600	 46.349720	-12.904920	 5.716295	 19.173350	-3.684826	 5.027458	 0.246833	-9.377971	-2.350882	 35.473990	 5.254307
-0.718602	-0.006549	 1.271414	-176.172200	-6.968299	 0.129900	-15.342610	 3.920144	-175.583500	-6.329271	-14.255040	-1.930109	 20.302010	 71.529600	-29.598890	-2.385833	 28.452760	 0.000004	 17.618980	 4.656728	 173.226000	 3.532726	-13.220960	 0.859536	-19.562200	 69.697750	 26.865470	 2.384659	 28.388700	-0.000001	 0.382508	 7.374882	-2.865630	 1.247088	 12.134670	 8.274038	-9.631042	-10.142130	-10.036790	-91.776190	 78.527400	-180.000000	-5.247041	 12.164990	 20.500450	-16.378470	-4.395602	-65.367940	-1.888743	-11.100040	-2.378327	-4.130354	 21.526190	 0.991307	-5.167926	 0.731697	 3.519349	-1.378229	 35.397820	-2.634230	-9.306526	 1.443976	 4.882126	-7.094677	-17.457620	-7.079955	 89.782200	 78.203870	 179.999900	 25.501210	 6.168450	-14.405920	 10.337340	-3.060163	 62.976250	 51.370120	 40.297850	-10.467290	 5.716295	 19.173350	-3.684826	 5.027458	 0.246833	-9.377971	-2.350882	 35.473990	 5.254307
-0.718772	-0.006742	 1.270573	-176.087300	-7.127809	-0.024612	-15.204490	 3.415446	-175.501400	-6.445795	-16.307500	-2.233993	 20.984890	 73.083720	-30.231470	-2.385833	 28.452760	 0.000004	 17.573900	 4.666771	 173.186200	 3.577982	-14.682770	 0.964099	-21.433030	 70.826610	 28.761230	 2.384659	 28.388700	-0.000001	-0.278915	 7.627201	-2.685637	 0.678647	 11.171750	 8.167073	-9.457054	-9.515291	-9.829535	-91.776180	 78.527400	-180.000000	-6.481865	 19.627250	 24.794630	-17.160530	-5.026085	-76.223620	-1.942673	-11.082940	-2.401140	-4.130354	 21.526190	 0.991307	-5.167926	 0.731697	 3.519349	-1.378229	 35.397820	-2.634230	-9.249301	 1.358913	 4.865921	-7.044960	-17.244730	-7.082146	 89.782070	 78.203890	-180.000000	 22.217150	 12.040220	-18.919770	 10.969510	-3.337506	 74.459000	 49.488370	 34.521850	-7.154418	 5.716295	 19.173350	-3.684826	 5.027458	 0.246833	-9.377971	-2.350882	 35.473990	 5.254307
-0.718939	-0.006951	 1.269630	-176.029600	-7.270161	-0.189256	-15.033740	 2.956168	-175.440800	-6.581109	-18.363900	-2.549608	 21.659310	 74.668590	-30.833490	-2.385833	 28.452760	 0.000004	 17.560500	 4.753231	 173.136100	 3.603436	-16.111000	 1.062579	-23.713050	 71.984590	 31.087900	 2.384659	 28.388700	-0.000001	-1.012619	 7.853989	-2.457033	 0.030508	 10.087010	 7.955524	-9.253555	-8.822328	-9.561610	-91.776200	 78.527400	-180.000000	-7.642588	 28.713040	 28.123840	-17.934660	-5.431214	-85.189620	-2.021686	-11.072190	-2.418275	-4.130354	 21.526190	 0.991307	-5.167926	 0.731697	 3.519349	-1.378229	 35.397820	-2.634230	-9.166234	 1.236587	 4.816504	-6.978152	-17.003110	-6.985032	 89.782100	 78.203920	 180.000000	 17.680790	 19.121630	-21.924220	 11.557110	-3.516342	 84.474610	 45.516480	 28.468350	-2.664947	 5.716295	 19.173350	-3.684826	 5.027458	 0.246833	-9.377971	-2.350882	 35.473990	 5.254307
-0.719158	-0.007223	 1.268378	-176.036600	-7.371588	-0.444043	-14.684210	 2.467378	-175.384600	-6.789536	-20.729030	-2.938990	 21.939970	 76.490070	-30.949970	-2.385833	 28.452760	 0.000004	 17.709210	 4.872981	 173.097200	 3.555600	-17.850310	 1.158997	-27.369010	 73.419610	 34.896210	 2.384659	 28.388700	-0.000001	-1.977694	 8.044001	-2.007551	-0.859156	 8.586610	 7.420500	-8.913335	-7.857975	-9.067826	-91.776150	 78.527380	 180.000000	-8.328470	 41.861300	 30.046010	-18.599900	-5.602359	-92.137570	-2.212139	-11.104010	-2.431863	-4.130354	 21.526190	 0.991307	-5.167926	 0.731697	 3.519349	-1.378229	 35.397820	-2.634230	-8.950052	 0.919488	 4.621623	-6.819757	-16.544570	-6.472923	 89.782070	 78.203850	-180.000000	 9.625446	 29.321820	-22.097310	 12.139900	-3.766260	 93.691090	 37.531100	 20.927610	 4.129328	 5.716295	 19.173350	-3.684826	 5.027458	 0.246833	-9.377971	-2.350882	 35.473990	 5.254307
-0.719331	-0.007513	 1.267086	-176.049400	-7.460758	-0.570636	-14.399140	 2.034144	-175.475300	-6.991805	-23.160550	-3.346141	 22.922450	 78.535800	-31.793960	-2.385833	 28.452760	 0.000004	 17.820360	 5.231262	 172.924300	 3.494243	-19.164460	 1.220978	-31.079070	 74.594140	 38.737650	 2.384659	 28.388700	-0.000001	-3.009758	 8.275397	-1.737180	-1.847986	 6.845345	 6.823185	-8.555204	-6.692658	-8.495609	-91.776210	 78.527420	-180.000000	-6.508825	 56.144710	 27.441850	-18.682380	-5.765496	-92.897250	-2.326054	-11.080020	-2.449142	-4.130354	 21.526190	 0.991307	-5.167926	 0.731697	 3.519349	-1.378229	 35.397820	-2.634230	-8.761899	 0.684933	 4.516100	-6.673954	-16.081050	-6.215889	 89.782100	 78.203870	-180.000000	-2.186293	 40.504850	-16.104690	 12.492450	-4.115420	 98.239320	 26.825460	 12.991420	 11.111590	 5.716295	 19.173350	-3.684826	 5.027458	 0.246833	-9.377971	-2.350882	 35.473990	 5.254307
-0.719426	-0.007804	 1.265953	-176.072800	-7.534623	-0.392702	-14.255760	 1.659098	-175.843600	-7.140662	-25.561620	-3.735462	 26.136300	 80.811870	-34.966890	-2.385833	 28.452760	 0.000004	 17.890290	 5.816815	 172.488800	 3.403636	-19.709780	 1.223673	-33.242550	 75.264750	 40.987350	 2.384659	 28.388700	-0.000001	-3.946669	 8.632477	-1.957041	-2.821195	 4.875661	 6.345873	-8.194427	-5.264674	-7.907163	-91.776170	 78.527380	 180.000000	 0.874388	 67.768800	 16.695000	-18.066510	-5.951652	-86.872020	-2.250746	-10.941410	-2.474543	-4.130354	 21.526190	 0.991307	-5.167926	 0.731697	 3.519349	-1.378229	 35.397820	-2.634230	-8.637852	 0.645427	 4.612743	-6.549019	-15.616920	-6.544842	 89.782160	 78.203830	 179.999900	-17.343070	 49.555180	-3.185929	 12.505300	-4.826346	 97.191730	 15.690200	 5.953833	 17.084290	 5.716295	 19.173350	-3.684826	 5.027458	 0.246833	-9.377971	-2.350882	 35.473990	 5.254307
-0.719543	-0.008151	 1.264845	-176.088300	-7.536165	-0.183981	-14.070810	 1.322901	-176.299300	-7.294674	-27.883650	-4.121140	 30.998450	 83.042210	-39.772650	-2.385833	 28.452760	 0.000004	 18.031130	 6.450732	 172.015000	 3.311426	-20.131150	 1.216917	-35.702390	 75.929620	 43.522120	 2.384659	 28.388700	-0.000001	-4.994928	 9.062042	-2.141962	-3.901345	 2.527263	 5.580737	-7.787532	-3.598665	-7.134777	-91.776190	 78.527360	-180.000000	 20.719720	 75.707880	-10.515090	-16.535120	-5.879622	-72.446590	-2.178279	-10.819610	-2.497469	-4.130354	 21.526190	 0.991307	-5.167926	 0.731697	 3.519349	-1.378229	 35.397820	-2.634230	-8.439981	 0.540044	 4.619227	-6.381781	-15.049780	-6.729706	 89.782150	 78.203870	 179.999900	-37.902960	 55.234330	 18.253840	 11.918610	-5.611069	 90.220520	 4.541985	-1.363379	 23.721560	 5.716295	 19.173350	-3.684826	 5.027458	 0.246833	-9.377971	-2.350882	 35.473990	 5.254307
